<svg xmlns="http://www.w3.org/2000/svg" version="1.1" xmlns:xlink="http://www.w3.org/1999/xlink" xmlns:svgjs="http://svgjs.dev/svgjs" width="2000" height="900" preserveAspectRatio="none" viewBox="0 0 2000 900"><g mask="url(&quot;#SvgjsMask1116&quot;)" fill="none"><rect width="2000" height="900" x="0" y="0" fill="url(&quot;#SvgjsLinearGradient1117&quot;)"></rect><path d="M25 900L925 0L1354 0L454 900z" fill="url(&quot;#SvgjsLinearGradient1118&quot;)"></path><path d="M670 900L1570 0L1997.5 0L1097.5 900z" fill="url(&quot;#SvgjsLinearGradient1118&quot;)"></path><path d="M1876 900L976 0L539.5 0L1439.5 900z" fill="url(&quot;#SvgjsLinearGradient1119&quot;)"></path><path d="M1235 900L335 0L-53.5 0L846.5 900z" fill="url(&quot;#SvgjsLinearGradient1119&quot;)"></path><path d="M1160.5046662167301 900L2000 60.50466621673013L2000 900z" fill="url(&quot;#SvgjsLinearGradient1118&quot;)"></path><path d="M0 900L839.4953337832699 900L 0 60.50466621673013z" fill="url(&quot;#SvgjsLinearGradient1119&quot;)"></path></g><defs><mask id="SvgjsMask1116"><rect width="2000" height="900" fill="#ffffff"></rect></mask><linearGradient x1="13.75%" y1="-30.56%" x2="86.25%" y2="130.56%" gradientUnits="userSpaceOnUse" id="SvgjsLinearGradient1117"><stop stop-color="rgba(72, 174, 76, 1)" offset="0.01"></stop><stop stop-color="rgba(72, 174, 76, 1)" offset="0.03"></stop><stop stop-color="rgba(72, 174, 76, 1)" offset="0.04"></stop><stop stop-color="rgba(72, 174, 76, 1)" offset="0.08"></stop><stop stop-color="rgba(72, 174, 76, 1)" offset="0.09"></stop><stop stop-color="rgba(72, 174, 76, 1)" offset="0.45"></stop><stop stop-color="rgba(72, 174, 76, 1)" offset="0.5"></stop><stop stop-color="rgba(72, 174, 76, 1)" offset="0.74"></stop><stop stop-color="rgba(72, 174, 76, 1)" offset="1"></stop></linearGradient><linearGradient x1="0%" y1="100%" x2="100%" y2="0%" id="SvgjsLinearGradient1118"><stop stop-color="rgba(15, 70, 185, 0.2)" offset="0"></stop><stop stop-opacity="0" stop-color="rgba(15, 70, 185, 0.2)" offset="0.66"></stop></linearGradient><linearGradient x1="100%" y1="100%" x2="0%" y2="0%" id="SvgjsLinearGradient1119"><stop stop-color="rgba(15, 70, 185, 0.2)" offset="0"></stop><stop stop-opacity="0" stop-color="rgba(15, 70, 185, 0.2)" offset="0.66"></stop></linearGradient></defs></svg>